<svg width="1920" height="1080" viewBox="0 0 1920 1080" xmlns="http://www.w3.org/2000/svg" style="background: #000;">
  <defs>
    <linearGradient id="trustGlow" x1="0%" y1="0%" x2="100%" y2="0%">
      <stop offset="0%" style="stop-color:#003300;stop-opacity:0.3" />
      <stop offset="50%" style="stop-color:#00ff00;stop-opacity:0.8" />
      <stop offset="100%" style="stop-color:#003300;stop-opacity:0.3" />
    </linearGradient>
    <radialGradient id="nodeGlow" cx="50%" cy="50%" r="50%">
      <stop offset="0%" style="stop-color:#00ff00;stop-opacity:1" />
      <stop offset="100%" style="stop-color:#00ff00;stop-opacity:0" />
    </radialGradient>
  </defs>
  
  <!-- 背景字符网格 -->
  <g opacity="0.12" font-family="monospace" font-size="14" fill="#00ff00">
    <text x="60" y="80">从不信任</text>
    <text x="200" y="60">VRF随机选择</text>
    <text x="120" y="140">持续验证</text>
    <text x="340" y="120">委员会节点</text>
    <text x="80" y="200">Proof-of-Stake</text>
    <text x="460" y="180">轮转星系</text>
    <text x="240" y="260">BFT共识</text>
    <text x="140" y="320">拜占庭将军</text>
    <text x="380" y="300">2f+1见证</text>
    <text x="520" y="280">诚实节点</text>
    <text x="160" y="400">ZK-SNARK</text>
    <text x="300" y="380">静默证明</text>
    <text x="480" y="360">无需暴露</text>
    <text x="100" y="480">Merkle路径</text>
    <text x="420" y="460">追溯到根</text>
    <text x="220" y="540">不可篡改</text>
    <text x="360" y="520">印记永存</text>
    
    <text x="680" y="100">流量混淆</text>
    <text x="820" y="80">洋葱路由</text>
    <text x="740" y="160">Tor节点</text>
    <text x="920" y="140">多重面具</text>
    <text x="700" y="240">分布式信任</text>
    <text x="880" y="220">去中心化</text>
    <text x="760" y="320">绝对安全</text>
    <text x="640" y="380">监视者</text>
    <text x="980" y="360">递归镜像</text>
    <text x="720" y="460">迷宫深处</text>
    <text x="860" y="440">零信任</text>
    <text x="800" y="540">永不停歇</text>
    
    <text x="1140" y="120">权重投票</text>
    <text x="1280" y="100">共识机制</text>
    <text x="1180" y="180">真相边界</text>
    <text x="1360" y="160">跨越网络</text>
    <text x="1220" y="260">验证身份</text>
    <text x="1440" y="240">数据包</text>
    <text x="1160" y="340">陌生人</text>
    <text x="1320" y="320">唯一信条</text>
    <text x="1260" y="420">再验证</text>
    <text x="1400" y="400">持续监控</text>
    <text x="1200" y="500">星系旋转</text>
    <text x="1340" y="480">委员会</text>
    
    <text x="1540" y="140">VRF</text>
    <text x="1660" y="120">随机性</text>
    <text x="1600" y="200">BFT</text>
    <text x="1720" y="180">容错</text>
    <text x="1580" y="280">ZK证明</text>
    <text x="1700" y="260">零知识</text>
    <text x="1640" y="360">Merkle</text>
    <text x="1560" y="440">信任链</text>
    <text x="1680" y="420">洋葱层</text>
    <text x="1740" y="500">Tor</text>
    
    <text x="100" y="620">验证协议</text>
    <text x="240" y="600">2f+1</text>
    <text x="160" y="680">拜占庭容错</text>
    <text x="340" y="660">BFT算法</text>
    <text x="200" y="760">权重系统</text>
    <text x="420" y="740">Stake投票</text>
    <text x="120" y="840">委员会选举</text>
    <text x="320" y="820">VRF随机</text>
    <text x="260" y="900">星系轮转</text>
    <text x="80" y="980">零知识证明</text>
    <text x="380" y="960">ZK-SNARK</text>
    <text x="180" y="1040">静默验证</text>
    
    <text x="540" y="640">Merkle树</text>
    <text x="680" y="620">追溯根节点</text>
    <text x="600" y="700">路径证明</text>
    <text x="780" y="680">不可篡改</text>
    <text x="640" y="780">印记永存</text>
    <text x="860" y="760">流量混淆</text>
    <text x="560" y="860">洋葱路由</text>
    <text x="720" y="840">Tor网络</text>
    <text x="660" y="920">多重代理</text>
    <text x="800" y="900">面具层叠</text>
    <text x="580" y="1000">分布式</text>
    <text x="740" y="980">去中心化</text>
    <text x="620" y="1060">信任网络</text>
    
    <text x="1020" y="660">监视者</text>
    <text x="1160" y="640">递归监视</text>
    <text x="1080" y="720">镜像迷宫</text>
    <text x="1240" y="700">无限循环</text>
    <text x="1120" y="800">零信任</text>
    <text x="1300" y="780">唯一信条</text>
    <text x="1060" y="880">持续验证</text>
    <text x="1220" y="860">永不停歇</text>
    <text x="1140" y="960">再验证</text>
    <text x="1020" y="1040">信任边界</text>
    
    <text x="1420" y="680">共识层</text>
    <text x="1560" y="660">BFT机制</text>
    <text x="1480" y="740">诚实见证</text>
    <text x="1640" y="720">真相传递</text>
    <text x="1520" y="820">网络边界</text>
    <text x="1700" y="800">跨越协议</text>
    <text x="1460" y="900">验证节点</text>
    <text x="1600" y="880">权重分配</text>
    <text x="1540" y="980">Stake质押</text>
    <text x="1680" y="960">投票机制</text>
    <text x="1440" y="1060">星系旋转</text>
    <text x="1740" y="1040">委员选举</text>
  </g>
  
  <!-- 网络拓扑连接 -->
  <g opacity="0.3" stroke="#00ff00" stroke-width="1" fill="none">
    <line x1="300" y1="300" x2="600" y2="250"/>
    <line x1="600" y1="250" x2="900" y2="350"/>
    <line x1="900" y1="350" x2="1200" y2="300"/>
    <line x1="1200" y1="300" x2="1500" y2="400"/>
    <line x1="300" y1="300" x2="450" y2="550"/>
    <line x1="450" y1="550" x2="750" y2="600"/>
    <line x1="750" y1="600" x2="1050" y2="550"/>
    <line x1="1050" y1="550" x2="1350" y2="650"/>
    <line x1="1350" y1="650" x2="1500" y2="400"/>
    <line x1="600" y1="250" x2="750" y2="600"/>
    <line x1="900" y1="350" x2="1050" y2="550"/>
    <line x1="450" y1="550" x2="900" y2="350"/>
    <line x1="600" y1="250" x2="1200" y2="300"/>
    <line x1="750" y1="600" x2="1350" y2="650"/>
  </g>
  
  <!-- 节点光晕 -->
  <g opacity="0.5">
    <circle cx="300" cy="300" r="10" fill="url(#nodeGlow)"/>
    <circle cx="600" cy="250" r="10" fill="url(#nodeGlow)"/>
    <circle cx="900" cy="350" r="10" fill="url(#nodeGlow)"/>
    <circle cx="1200" cy="300" r="10" fill="url(#nodeGlow)"/>
    <circle cx="1500" cy="400" r="10" fill="url(#nodeGlow)"/>
    <circle cx="450" cy="550" r="10" fill="url(#nodeGlow)"/>
    <circle cx="750" cy="600" r="10" fill="url(#nodeGlow)"/>
    <circle cx="1050" cy="550" r="10" fill="url(#nodeGlow)"/>
    <circle cx="1350" cy="650" r="10" fill="url(#nodeGlow)"/>
  </g>
  
  <!-- 核心节点 -->
  <g opacity="0.7">
    <circle cx="300" cy="300" r="5" fill="#00ff00"/>
    <circle cx="600" cy="250" r="5" fill="#00ff00"/>
    <circle cx="900" cy="350" r="5" fill="#00ff00"/>
    <circle cx="1200" cy="300" r="5" fill="#00ff00"/>
    <circle cx="1500" cy="400" r="5" fill="#00ff00"/>
    <circle cx="450" cy="550" r="5" fill="#00ff00"/>
    <circle cx="750" cy="600" r="5" fill="#00ff00"/>
    <circle cx="1050" cy="550" r="5" fill="#00ff00"/>
    <circle cx="1350" cy="650" r="5" fill="#00ff00"/>
  </g>
  
  <!-- 横向光带 -->
  <g opacity="0.35">
    <rect x="0" y="460" width="1920" height="160" fill="url(#trustGlow)"/>
  </g>
  
  <!-- 核心诗句 -->
  <g font-family="monospace" fill="#00ff00" font-weight="500">
    <text x="960" y="500" font-size="32" text-anchor="middle">零信任协定</text>
    <text x="960" y="540" font-size="22" text-anchor="middle" opacity="0.85">ZERO TRUST PROTOCOL</text>
    <text x="960" y="580" font-size="16" text-anchor="middle" opacity="0.7">从不信任 · 持续验证 · 永不停歇</text>
  </g>
  
  <!-- 装饰代码 -->
  <g opacity="0.25" font-family="monospace" font-size="12" fill="#00cc00">
    <text x="120" y="100">verify(proof) → bool</text>
    <text x="1480" y="120">zkproof = ZK_SNARK.generate(witness, circuit)</text>
    <text x="140" y="1060">consensus = BFT.agree(2f+1, validators)</text>
    <text x="1300" y="1060">VRF.select(entropy) → committee[i]</text>
  </g>
  
  <!-- 验证标记 -->
  <g opacity="0.5" font-family="monospace" font-size="18" fill="#00ff00" font-weight="500">
    <text x="280" y="310">✓</text>
    <text x="580" y="260">✓</text>
    <text x="880" y="360">✓</text>
    <text x="1180" y="310">✓</text>
    <text x="1480" y="410">✓</text>
    <text x="430" y="560">✓</text>
    <text x="730" y="610">✓</text>
    <text x="1030" y="560">✓</text>
    <text x="1330" y="660">✓</text>
  </g>
</svg>
